<svg xmlns="http://www.w3.org/2000/svg" width="51" height="47" viewBox="0 0 51 47" fill="none">
  <path d="M8.49987 19.5833L6.99749 20.9679L5.49512 19.5833L6.99749 18.1988L8.49987 19.5833ZM44.6249 35.25C44.6249 35.7694 44.401 36.2675 44.0025 36.6348C43.604 37.002 43.0634 37.2083 42.4999 37.2083C41.9363 37.2083 41.3958 37.002 40.9973 36.6348C40.5987 36.2675 40.3749 35.7694 40.3749 35.25H44.6249ZM17.6225 30.7596L6.99749 20.9679L10.0022 18.1988L20.6272 27.9905L17.6225 30.7596ZM6.99749 18.1988L17.6225 8.40714L20.6272 11.1762L10.0022 20.9679L6.99749 18.1988ZM8.49987 17.625H29.7499V21.5417H8.49987V17.625ZM44.6249 31.3333V35.25H40.3749V31.3333H44.6249ZM29.7499 17.625C33.695 17.625 37.4785 19.0693 40.2681 21.6401C43.0577 24.2109 44.6249 27.6977 44.6249 31.3333H40.3749C40.3749 28.7364 39.2555 26.2459 37.2629 24.4096C35.2703 22.5733 32.5678 21.5417 29.7499 21.5417V17.625Z" fill="white"/>
</svg>