<svg width="70" height="70" viewBox="0 0 70 70" fill="none" xmlns="http://www.w3.org/2000/svg">
<g clip-path="url(#clip0_142_70)">
<rect width="70" height="70" rx="35" fill="#908DFF"/>
<path fill-rule="evenodd" clip-rule="evenodd" d="M94.992 5.3409C95.1559 2.39539 92.7721 0 89.8545 0H52.8556C49.9353 0 47.5991 2.40073 47.2767 5.33288C46.0788 16.1726 41.2686 26.2784 33.6361 33.9909C26.0035 41.7034 16.0023 46.5639 5.27498 47.7743C2.37321 48.0974 0 50.4608 0 53.409V90.7979C0 93.7488 2.36793 96.1575 5.28291 95.9919C28.6524 94.6784 50.7227 84.7063 67.273 67.9827C83.8233 51.2591 93.6921 28.9551 94.992 5.3409ZM13.1795 70.4037C11.2453 70.8363 9.29415 71.1873 7.33106 71.4559L8.04197 76.7487C10.1505 76.4604 12.2463 76.0836 14.3239 75.6191L13.1795 70.4037ZM35.112 61.439C31.7342 63.5358 28.1894 65.3446 24.5144 66.8467L26.4965 71.7977C30.4438 70.1845 34.2511 68.2417 37.8789 65.9895L35.112 61.439ZM48.9813 50.1991C47.6026 51.6359 46.1655 53.0141 44.6735 54.3303L48.1488 58.3546C51.3558 55.5263 54.3242 52.433 57.0232 49.1069L52.9349 45.7208C51.679 47.2683 50.36 48.7624 48.9813 50.1991ZM64.6952 24.9767C63.3231 28.7343 61.6435 32.3697 59.6739 35.8454L64.2592 38.4999C66.375 34.7663 68.1792 30.861 69.6531 26.8247L64.6952 24.9767ZM68.7255 7.47726C68.5193 9.47475 68.2313 11.4562 67.8666 13.4163L73.0596 14.4097C73.4547 12.2978 73.7633 10.1703 73.9846 8.03271L68.7255 7.47726Z" fill="#14110A"/>
<g filter="url(#filter0_d_142_70)">
<path d="M32.9 18.1C33.5333 18.1667 34.05 18.3167 34.45 18.55C34.65 22.8167 34.7167 27.1333 34.65 31.5C34.5833 35.8333 34.3167 40.15 33.85 44.45C33.5833 46.65 32.75 48.5167 31.35 50.05C29.95 51.5833 28.05 52.4667 25.65 52.7C24.25 52.8333 22.8 52.7667 21.3 52.5C19.8 52.2667 18.4333 51.8333 17.2 51.2C16 50.5333 14.9833 49.6667 14.15 48.6C13.35 47.5 12.9167 46.1833 12.85 44.65C12.85 40.25 12.9 35.8167 13 31.35C13.1 26.8833 13.1167 22.45 13.05 18.05L13 18H13.05C13.55 18 14.1 17.9833 14.7 17.95C15.3333 17.9167 15.9667 17.9 16.6 17.9C17.2333 17.9 17.85 17.9333 18.45 18C19.05 18.0333 19.6 18.1167 20.1 18.25V18.3C19.7333 26.3667 19.8833 34.55 20.55 42.85C20.7833 43.65 21.2 44.2333 21.8 44.6C22.4333 44.9667 23.0833 45.1333 23.75 45.1C24.4167 45.0667 25.0333 44.8333 25.6 44.4C26.1667 43.9667 26.5333 43.3667 26.7 42.6C26.8667 38.6 26.95 34.5333 26.95 30.4C26.9833 26.2667 27.05 22.2667 27.15 18.4C27.5833 18.3667 28.1333 18.3167 28.8 18.25C29.5 18.15 30.2 18.0833 30.9 18.05C31.6 18.0167 32.2667 18.0333 32.9 18.1ZM54.0441 38.85C54.0441 38.9167 53.9941 38.95 53.8941 38.95C52.8608 39.1167 51.7775 39.25 50.6441 39.35C49.5441 39.4167 48.4941 39.5333 47.4941 39.7H47.4441C47.2775 41.8 47.1775 43.9 47.1441 46C47.1108 48.0667 47.0775 50.05 47.0441 51.95C46.3775 52.0167 45.5775 52.0667 44.6441 52.1C43.7441 52.1333 42.8441 52.15 41.9441 52.15C41.0441 52.15 40.2441 52.1333 39.5441 52.1C38.8775 52.0667 38.4775 52.0167 38.3441 51.95L38.2941 51.9C38.2941 49.9 38.2941 48.0333 38.2941 46.3C38.2941 44.5333 38.2941 42.8333 38.2941 41.2C38.3275 39.5667 38.3441 37.9333 38.3441 36.3C38.3441 34.6333 38.3441 32.8833 38.3441 31.05C38.3775 29.2167 38.3941 27.25 38.3941 25.15C38.3941 23.0167 38.3941 20.65 38.3941 18.05V18C38.9608 17.9 39.7775 17.8 40.8441 17.7C41.9108 17.6 43.1108 17.5 44.4441 17.4C45.8108 17.3 47.2441 17.2333 48.7441 17.2C50.2775 17.1333 51.7775 17.1167 53.2441 17.15C54.7108 17.15 56.0941 17.2167 57.3941 17.35C58.6941 17.4833 59.8108 17.6667 60.7441 17.9C60.7441 18.3333 60.7441 18.8833 60.7441 19.55C60.7775 20.2167 60.7941 20.9167 60.7941 21.65C60.7941 22.35 60.7941 23.0333 60.7941 23.7C60.7941 24.3333 60.7775 24.8667 60.7441 25.3C59.8441 25.3667 58.8275 25.4333 57.6941 25.5C56.5941 25.5667 55.4441 25.6333 54.2441 25.7C53.0775 25.7333 51.8941 25.7833 50.6941 25.85C49.5275 25.9167 48.4275 26 47.3941 26.1C47.0275 26.9667 46.8775 27.8 46.9441 28.6C47.0108 29.4 47.1941 30.0667 47.4941 30.6C47.5275 30.6333 47.5608 30.65 47.5941 30.65C48.0608 30.7167 48.5775 30.7667 49.1441 30.8C49.7441 30.8 50.3275 30.8 50.8941 30.8C51.4608 30.8 52.0108 30.7833 52.5441 30.75C53.0775 30.7167 53.5275 30.6833 53.8941 30.65C53.9941 30.8833 54.0441 31.3333 54.0441 32C54.0775 32.6667 54.0775 33.4167 54.0441 34.25C54.0108 35.05 53.9775 35.8667 53.9441 36.7C53.9441 37.5333 53.9775 38.25 54.0441 38.85Z" fill="white"/>
</g>
</g>
<defs>
<filter id="filter0_d_142_70" x="8.8501" y="17.1" width="55.9438" height="43.8" filterUnits="userSpaceOnUse" color-interpolation-filters="sRGB">
<feFlood flood-opacity="0" result="BackgroundImageFix"/>
<feColorMatrix in="SourceAlpha" type="matrix" values="0 0 0 0 0 0 0 0 0 0 0 0 0 0 0 0 0 0 127 0" result="hardAlpha"/>
<feOffset dy="4"/>
<feGaussianBlur stdDeviation="2"/>
<feComposite in2="hardAlpha" operator="out"/>
<feColorMatrix type="matrix" values="0 0 0 0 0 0 0 0 0 0 0 0 0 0 0 0 0 0 0.25 0"/>
<feBlend mode="normal" in2="BackgroundImageFix" result="effect1_dropShadow_142_70"/>
<feBlend mode="normal" in="SourceGraphic" in2="effect1_dropShadow_142_70" result="shape"/>
</filter>
<clipPath id="clip0_142_70">
<rect width="70" height="70" rx="35" fill="white"/>
</clipPath>
</defs>
</svg>
